<svg width="100" height="100" viewBox="0 0 100 100" fill="none" xmlns="http://www.w3.org/2000/svg">
<rect width="100" height="100" rx="20" fill="#092BFE" fill-opacity="0.52"/>
<path d="M31.724 84.016V91H33.608V84.016H36.176V82.432H29.156V84.016H31.724ZM39.0479 86.308V83.896H41.1119C41.5439 83.896 41.8679 83.992 42.0839 84.184C42.2999 84.368 42.4079 84.668 42.4079 85.084C42.4079 85.516 42.2999 85.828 42.0839 86.02C41.8679 86.212 41.5439 86.308 41.1119 86.308H39.0479ZM37.1639 82.432V91H39.0479V87.652H40.9319C41.4039 87.652 41.7439 87.756 41.9519 87.964C42.1599 88.172 42.2959 88.5 42.3599 88.948C42.4079 89.292 42.4439 89.652 42.4679 90.028C42.4919 90.404 42.5559 90.728 42.6599 91H44.5439C44.4559 90.88 44.3879 90.736 44.3399 90.568C44.2999 90.392 44.2679 90.208 44.2439 90.016C44.2279 89.824 44.2159 89.636 44.2079 89.452C44.1999 89.268 44.1919 89.108 44.1839 88.972C44.1679 88.756 44.1359 88.54 44.0879 88.324C44.0479 88.108 43.9799 87.912 43.8839 87.736C43.7879 87.552 43.6639 87.396 43.5119 87.268C43.3599 87.132 43.1679 87.032 42.9359 86.968V86.944C43.4159 86.752 43.7599 86.472 43.9679 86.104C44.1839 85.736 44.2919 85.3 44.2919 84.796C44.2919 84.468 44.2319 84.164 44.1119 83.884C43.9999 83.596 43.8319 83.344 43.6079 83.128C43.3919 82.912 43.1279 82.744 42.8159 82.624C42.5119 82.496 42.1679 82.432 41.7839 82.432H37.1639ZM47.9841 87.688L49.1001 84.544H49.1241L50.2041 87.688H47.9841ZM48.1641 82.432L44.9241 91H46.8201L47.4921 89.092H50.6961L51.3441 91H53.3001L50.0961 82.432H48.1641ZM55.9229 89.416V84.016H57.2669C57.7309 84.016 58.1189 84.084 58.4309 84.22C58.7509 84.348 59.0069 84.536 59.1989 84.784C59.3909 85.032 59.5269 85.332 59.6069 85.684C59.6949 86.028 59.7389 86.416 59.7389 86.848C59.7389 87.32 59.6789 87.72 59.5589 88.048C59.4389 88.376 59.2789 88.644 59.0789 88.852C58.8789 89.052 58.6509 89.196 58.3949 89.284C58.1389 89.372 57.8749 89.416 57.6029 89.416H55.9229ZM54.0389 82.432V91H57.7349C58.3909 91 58.9589 90.892 59.4389 90.676C59.9269 90.452 60.3309 90.148 60.6509 89.764C60.9789 89.38 61.2229 88.924 61.3829 88.396C61.5429 87.868 61.6229 87.292 61.6229 86.668C61.6229 85.956 61.5229 85.336 61.3229 84.808C61.1309 84.28 60.8589 83.84 60.5069 83.488C60.1629 83.136 59.7509 82.872 59.2709 82.696C58.7989 82.52 58.2869 82.432 57.7349 82.432H54.0389ZM62.9335 82.432V91H69.4375V89.416H64.8175V87.316H68.9695V85.852H64.8175V84.016H69.3415V82.432H62.9335Z" fill="white"/>
<rect x="29" y="32" width="6" height="39" fill="#03FC6F"/>
<rect x="47" y="39" width="6" height="20" fill="#03FC6F"/>
<rect x="53" y="32" width="6" height="20" fill="#03FC6F"/>
<rect x="65" y="33" width="6" height="30" fill="#03FC6F"/>
<rect x="35" y="20" width="6" height="39" fill="#03FC6F"/>
<rect x="41" y="45" width="6" height="21" fill="#FC0324"/>
<rect x="59" y="39" width="6" height="35" fill="#FC0324"/>
</svg>
