<svg width="100" height="100" viewBox="0 0 100 100" fill="none" xmlns="http://www.w3.org/2000/svg">
<rect width="100" height="100" rx="20" fill="#092BFE" fill-opacity="0.52"/>
<path d="M14.5 66L27.5 46L30 52.5L42 31V37L62 21.5L66 24L74 12.5" stroke="white"/>
<path d="M29.828 82.432V91H31.712V82.432H29.828ZM33.3671 82.432V91H35.1311V85.264H35.1551L38.7191 91H40.6031V82.432H38.8391V88.18H38.8151L35.2391 82.432H33.3671ZM46.2456 91L49.0896 82.432H47.1456L45.2136 88.456H45.1896L43.2816 82.432H41.3496L44.1216 91H46.2456ZM49.8202 82.432V91H56.3242V89.416H51.7042V87.316H55.8562V85.852H51.7042V84.016H56.2282V82.432H49.8202ZM58.8854 88.156H57.0614C57.0534 88.684 57.1494 89.14 57.3494 89.524C57.5494 89.908 57.8174 90.224 58.1534 90.472C58.4974 90.72 58.8894 90.9 59.3294 91.012C59.7774 91.132 60.2374 91.192 60.7094 91.192C61.2934 91.192 61.8054 91.124 62.2454 90.988C62.6934 90.852 63.0654 90.664 63.3614 90.424C63.6654 90.176 63.8934 89.884 64.0454 89.548C64.1974 89.212 64.2734 88.848 64.2734 88.456C64.2734 87.976 64.1694 87.584 63.9614 87.28C63.7614 86.968 63.5214 86.72 63.2414 86.536C62.9614 86.352 62.6774 86.22 62.3894 86.14C62.1094 86.052 61.8894 85.992 61.7294 85.96C61.1934 85.824 60.7574 85.712 60.4214 85.624C60.0934 85.536 59.8334 85.448 59.6414 85.36C59.4574 85.272 59.3334 85.176 59.2694 85.072C59.2054 84.968 59.1734 84.832 59.1734 84.664C59.1734 84.48 59.2134 84.328 59.2934 84.208C59.3734 84.088 59.4734 83.988 59.5934 83.908C59.7214 83.828 59.8614 83.772 60.0134 83.74C60.1654 83.708 60.3174 83.692 60.4694 83.692C60.7014 83.692 60.9134 83.712 61.1054 83.752C61.3054 83.792 61.4814 83.86 61.6334 83.956C61.7854 84.052 61.9054 84.184 61.9934 84.352C62.0894 84.52 62.1454 84.732 62.1614 84.988H63.9854C63.9854 84.492 63.8894 84.072 63.6974 83.728C63.5134 83.376 63.2614 83.088 62.9414 82.864C62.6214 82.64 62.2534 82.48 61.8374 82.384C61.4294 82.28 61.0014 82.228 60.5534 82.228C60.1694 82.228 59.7854 82.28 59.4014 82.384C59.0174 82.488 58.6734 82.648 58.3694 82.864C58.0654 83.08 57.8174 83.352 57.6254 83.68C57.4414 84 57.3494 84.38 57.3494 84.82C57.3494 85.212 57.4214 85.548 57.5654 85.828C57.7174 86.1 57.9134 86.328 58.1534 86.512C58.3934 86.696 58.6654 86.848 58.9694 86.968C59.2734 87.08 59.5854 87.176 59.9054 87.256C60.2174 87.344 60.5254 87.424 60.8294 87.496C61.1334 87.568 61.4054 87.652 61.6454 87.748C61.8854 87.844 62.0774 87.964 62.2214 88.108C62.3734 88.252 62.4494 88.44 62.4494 88.672C62.4494 88.888 62.3934 89.068 62.2814 89.212C62.1694 89.348 62.0294 89.456 61.8614 89.536C61.6934 89.616 61.5134 89.672 61.3214 89.704C61.1294 89.728 60.9494 89.74 60.7814 89.74C60.5334 89.74 60.2934 89.712 60.0614 89.656C59.8294 89.592 59.6254 89.5 59.4494 89.38C59.2814 89.252 59.1454 89.088 59.0414 88.888C58.9374 88.688 58.8854 88.444 58.8854 88.156ZM67.2904 84.016V91H69.1744V84.016H71.7424V82.432H64.7224V84.016H67.2904Z" fill="white"/>
<line x1="14.5" y1="67" x2="14.5" y2="13" stroke="white"/>
<line x1="15" y1="66.5" x2="85" y2="66.5" stroke="white"/>
</svg>
