<svg width="100" height="100" viewBox="0 0 100 100" fill="none" xmlns="http://www.w3.org/2000/svg">
<rect width="100" height="100" rx="20" fill="#092BFE" fill-opacity="0.52"/>
<path d="M23.712 89.416V84.016H25.056C25.52 84.016 25.908 84.084 26.22 84.22C26.54 84.348 26.796 84.536 26.988 84.784C27.18 85.032 27.316 85.332 27.396 85.684C27.484 86.028 27.528 86.416 27.528 86.848C27.528 87.32 27.468 87.72 27.348 88.048C27.228 88.376 27.068 88.644 26.868 88.852C26.668 89.052 26.44 89.196 26.184 89.284C25.928 89.372 25.664 89.416 25.392 89.416H23.712ZM21.828 82.432V91H25.524C26.18 91 26.748 90.892 27.228 90.676C27.716 90.452 28.12 90.148 28.44 89.764C28.768 89.38 29.012 88.924 29.172 88.396C29.332 87.868 29.412 87.292 29.412 86.668C29.412 85.956 29.312 85.336 29.112 84.808C28.92 84.28 28.648 83.84 28.296 83.488C27.952 83.136 27.54 82.872 27.06 82.696C26.588 82.52 26.076 82.432 25.524 82.432H21.828ZM30.7225 82.432V91H37.2265V89.416H32.6065V87.316H36.7585V85.852H32.6065V84.016H37.1305V82.432H30.7225ZM42.4878 91L45.3318 82.432H43.3878L41.4558 88.456H41.4318L39.5238 82.432H37.5918L40.3638 91H42.4878ZM46.0624 82.432V91H52.5664V89.416H47.9464V87.316H52.0984V85.852H47.9464V84.016H52.4704V82.432H46.0624ZM53.8436 82.432V91H59.9036V89.416H55.7276V82.432H53.8436ZM62.4689 86.752C62.4689 86.376 62.5089 86.012 62.5889 85.66C62.6769 85.308 62.8129 84.996 62.9969 84.724C63.1809 84.444 63.4209 84.224 63.7169 84.064C64.0129 83.896 64.3729 83.812 64.7969 83.812C65.2209 83.812 65.5809 83.896 65.8769 84.064C66.1729 84.224 66.4129 84.444 66.5969 84.724C66.7809 84.996 66.9129 85.308 66.9929 85.66C67.0809 86.012 67.1249 86.376 67.1249 86.752C67.1249 87.112 67.0809 87.464 66.9929 87.808C66.9129 88.144 66.7809 88.448 66.5969 88.72C66.4129 88.992 66.1729 89.212 65.8769 89.38C65.5809 89.54 65.2209 89.62 64.7969 89.62C64.3729 89.62 64.0129 89.54 63.7169 89.38C63.4209 89.212 63.1809 88.992 62.9969 88.72C62.8129 88.448 62.6769 88.144 62.5889 87.808C62.5089 87.464 62.4689 87.112 62.4689 86.752ZM60.5849 86.752C60.5849 87.376 60.6809 87.96 60.8729 88.504C61.0649 89.04 61.3409 89.508 61.7009 89.908C62.0609 90.308 62.5009 90.624 63.0209 90.856C63.5489 91.08 64.1409 91.192 64.7969 91.192C65.4609 91.192 66.0529 91.08 66.5729 90.856C67.0929 90.624 67.5329 90.308 67.8929 89.908C68.2529 89.508 68.5289 89.04 68.7209 88.504C68.9129 87.96 69.0089 87.376 69.0089 86.752C69.0089 86.112 68.9129 85.52 68.7209 84.976C68.5289 84.424 68.2529 83.944 67.8929 83.536C67.5329 83.128 67.0929 82.808 66.5729 82.576C66.0529 82.344 65.4609 82.228 64.7969 82.228C64.1409 82.228 63.5489 82.344 63.0209 82.576C62.5009 82.808 62.0609 83.128 61.7009 83.536C61.3409 83.944 61.0649 84.424 60.8729 84.976C60.6809 85.52 60.5849 86.112 60.5849 86.752ZM72.1808 86.464V83.896H73.6448C73.8608 83.896 74.0688 83.912 74.2688 83.944C74.4688 83.976 74.6448 84.04 74.7968 84.136C74.9488 84.224 75.0688 84.352 75.1568 84.52C75.2528 84.688 75.3008 84.908 75.3008 85.18C75.3008 85.452 75.2528 85.672 75.1568 85.84C75.0688 86.008 74.9488 86.14 74.7968 86.236C74.6448 86.324 74.4688 86.384 74.2688 86.416C74.0688 86.448 73.8608 86.464 73.6448 86.464H72.1808ZM70.2968 82.432V91H72.1808V87.928H74.1608C74.6968 87.928 75.1528 87.852 75.5287 87.7C75.9048 87.54 76.2088 87.332 76.4408 87.076C76.6808 86.82 76.8528 86.528 76.9568 86.2C77.0688 85.864 77.1248 85.524 77.1248 85.18C77.1248 84.828 77.0688 84.488 76.9568 84.16C76.8528 83.832 76.6808 83.54 76.4408 83.284C76.2088 83.028 75.9048 82.824 75.5287 82.672C75.1528 82.512 74.6968 82.432 74.1608 82.432H70.2968Z" fill="white"/>
<rect x="20.5" y="24.5" width="59" height="41" stroke="white"/>
<path d="M28.5 41.5L33.5 45L28.5 47.5" stroke="white"/>
<line x1="70" y1="33.5" x2="39" y2="33.5" stroke="white"/>
<line x1="74" y1="39.5" x2="43" y2="39.5" stroke="white"/>
<line x1="70" y1="45.5" x2="39" y2="45.5" stroke="white"/>
<line x1="70" y1="51.5" x2="39" y2="51.5" stroke="white"/>
<line x1="70" y1="57.5" x2="39" y2="57.5" stroke="white"/>
</svg>
